<mxfile host="app.diagrams.net" modified="2020-06-27T11:02:54.661Z" agent="5.0 (Windows)" etag="_LDOr75YSugRh35sxXEa" version="13.3.5" type="github">
  <diagram name="Page-1" id="c7488fd3-1785-93aa-aadb-54a6760d102a">
    <mxGraphModel dx="1422" dy="802" grid="1" gridSize="10" guides="1" tooltips="1" connect="1" arrows="1" fold="1" page="1" pageScale="1" pageWidth="1100" pageHeight="850" background="#ffffff" math="0" shadow="0">
      <root>
        <mxCell id="0" />
        <mxCell id="1" parent="0" />
        <mxCell id="2b4e8129b02d487f-1" value="&lt;font style=&quot;font-size: 12px&quot;&gt;Patterns&lt;/font&gt;" style="swimlane;html=1;childLayout=stackLayout;horizontal=1;startSize=20;horizontalStack=0;rounded=0;shadow=0;labelBackgroundColor=none;strokeWidth=1;fontFamily=Verdana;fontSize=8;align=center;" parent="1" vertex="1">
          <mxGeometry x="180" y="70" width="730" height="950" as="geometry">
            <mxRectangle x="180" y="70" width="70" height="20" as="alternateBounds" />
          </mxGeometry>
        </mxCell>
        <mxCell id="2b4e8129b02d487f-2" value="Top Layer" style="swimlane;html=1;startSize=20;horizontal=0;" parent="2b4e8129b02d487f-1" vertex="1">
          <mxGeometry y="20" width="730" height="90" as="geometry" />
        </mxCell>
        <mxCell id="2b4e8129b02d487f-7" value="&lt;font style=&quot;font-size: 12px;&quot;&gt;Main Camera&lt;/font&gt;" style="rounded=1;whiteSpace=wrap;html=1;shadow=0;labelBackgroundColor=none;strokeWidth=1;fontFamily=Verdana;fontSize=12;align=center;fillColor=#FFCC99;" parent="2b4e8129b02d487f-2" vertex="1">
          <mxGeometry x="297.5" y="16" width="105" height="40.5" as="geometry" />
        </mxCell>
        <mxCell id="2b4e8129b02d487f-3" value="Scenes" style="swimlane;html=1;startSize=20;horizontal=0;" parent="2b4e8129b02d487f-1" vertex="1">
          <mxGeometry y="110" width="730" height="150" as="geometry" />
        </mxCell>
        <mxCell id="4Cs5pkkE4mOxZY2ZTMv_-4" value="&lt;font style=&quot;font-size: 12px;&quot;&gt;Setting&lt;/font&gt;" style="rounded=1;whiteSpace=wrap;html=1;shadow=0;labelBackgroundColor=none;strokeWidth=1;fontFamily=Verdana;fontSize=12;align=center;fillColor=#33FF33;" parent="2b4e8129b02d487f-3" vertex="1">
          <mxGeometry x="555" y="54.75" width="105" height="40.5" as="geometry" />
        </mxCell>
        <mxCell id="4Cs5pkkE4mOxZY2ZTMv_-2" value="&lt;font style=&quot;font-size: 12px;&quot;&gt;Main&lt;br style=&quot;font-size: 12px;&quot;&gt;&lt;/font&gt;" style="rounded=1;whiteSpace=wrap;html=1;shadow=0;labelBackgroundColor=none;strokeWidth=1;fontFamily=Verdana;fontSize=12;align=center;fillColor=#33FF33;" parent="2b4e8129b02d487f-3" vertex="1">
          <mxGeometry x="60" y="54.75" width="105" height="40.5" as="geometry" />
        </mxCell>
        <mxCell id="4Cs5pkkE4mOxZY2ZTMv_-3" value="&lt;font style=&quot;font-size: 12px;&quot;&gt;Story&lt;/font&gt;" style="rounded=1;whiteSpace=wrap;html=1;shadow=0;labelBackgroundColor=none;strokeWidth=1;fontFamily=Verdana;fontSize=12;align=center;fillColor=#33FF33;" parent="2b4e8129b02d487f-3" vertex="1">
          <mxGeometry x="220" y="54.75" width="105" height="40.5" as="geometry" />
        </mxCell>
        <mxCell id="4Cs5pkkE4mOxZY2ZTMv_-5" value="&lt;font style=&quot;font-size: 12px;&quot;&gt;Start&lt;/font&gt;" style="rounded=1;whiteSpace=wrap;html=1;shadow=0;labelBackgroundColor=none;strokeWidth=1;fontFamily=Verdana;fontSize=12;align=center;fillColor=#33FF33;" parent="2b4e8129b02d487f-3" vertex="1">
          <mxGeometry x="390" y="54.75" width="105" height="40.5" as="geometry" />
        </mxCell>
        <mxCell id="2b4e8129b02d487f-4" value="Objects" style="swimlane;html=1;startSize=20;horizontal=0;" parent="2b4e8129b02d487f-1" vertex="1">
          <mxGeometry y="260" width="730" height="430" as="geometry" />
        </mxCell>
        <mxCell id="4Cs5pkkE4mOxZY2ZTMv_-52" value="Background" style="rounded=1;whiteSpace=wrap;html=1;shadow=0;labelBackgroundColor=none;strokeWidth=1;fontFamily=Verdana;fontSize=12;align=center;" parent="2b4e8129b02d487f-4" vertex="1">
          <mxGeometry x="410" y="10" width="105" height="40.5" as="geometry" />
        </mxCell>
        <mxCell id="4Cs5pkkE4mOxZY2ZTMv_-39" value="Background" style="rounded=1;whiteSpace=wrap;html=1;shadow=0;labelBackgroundColor=none;strokeWidth=1;fontFamily=Verdana;fontSize=12;align=center;" parent="2b4e8129b02d487f-4" vertex="1">
          <mxGeometry x="240" y="10" width="105" height="40.5" as="geometry" />
        </mxCell>
        <mxCell id="4Cs5pkkE4mOxZY2ZTMv_-12" value="&lt;font style=&quot;font-size: 12px;&quot;&gt;Player&lt;/font&gt;" style="rounded=1;whiteSpace=wrap;html=1;shadow=0;labelBackgroundColor=none;strokeWidth=1;fontFamily=Verdana;fontSize=12;align=center;" parent="2b4e8129b02d487f-4" vertex="1">
          <mxGeometry x="80" y="10" width="105" height="40.5" as="geometry" />
        </mxCell>
        <mxCell id="4Cs5pkkE4mOxZY2ZTMv_-67" value="Background" style="rounded=1;whiteSpace=wrap;html=1;shadow=0;labelBackgroundColor=none;strokeWidth=1;fontFamily=Verdana;fontSize=12;align=center;" parent="2b4e8129b02d487f-4" vertex="1">
          <mxGeometry x="580" y="10" width="105" height="40.5" as="geometry" />
        </mxCell>
        <mxCell id="4Cs5pkkE4mOxZY2ZTMv_-13" value="&lt;font style=&quot;font-size: 12px;&quot;&gt;World&lt;/font&gt;" style="rounded=1;whiteSpace=wrap;html=1;shadow=0;labelBackgroundColor=none;strokeWidth=1;fontFamily=Verdana;fontSize=12;align=center;" parent="2b4e8129b02d487f-4" vertex="1">
          <mxGeometry x="80" y="70" width="105" height="40.5" as="geometry" />
        </mxCell>
        <mxCell id="4Cs5pkkE4mOxZY2ZTMv_-40" value="Manager" style="rounded=1;whiteSpace=wrap;html=1;shadow=0;labelBackgroundColor=none;strokeWidth=1;fontFamily=Verdana;fontSize=12;align=center;" parent="2b4e8129b02d487f-4" vertex="1">
          <mxGeometry x="240" y="70" width="105" height="40.5" as="geometry" />
        </mxCell>
        <mxCell id="4Cs5pkkE4mOxZY2ZTMv_-53" value="Manger" style="rounded=1;whiteSpace=wrap;html=1;shadow=0;labelBackgroundColor=none;strokeWidth=1;fontFamily=Verdana;fontSize=12;align=center;" parent="2b4e8129b02d487f-4" vertex="1">
          <mxGeometry x="410" y="70" width="105" height="40.5" as="geometry" />
        </mxCell>
        <mxCell id="4Cs5pkkE4mOxZY2ZTMv_-69" value="Manger" style="rounded=1;whiteSpace=wrap;html=1;shadow=0;labelBackgroundColor=none;strokeWidth=1;fontFamily=Verdana;fontSize=12;align=center;" parent="2b4e8129b02d487f-4" vertex="1">
          <mxGeometry x="580" y="70" width="105" height="40.5" as="geometry" />
        </mxCell>
        <mxCell id="4Cs5pkkE4mOxZY2ZTMv_-14" value="Wood Box" style="rounded=1;whiteSpace=wrap;html=1;shadow=0;labelBackgroundColor=none;strokeWidth=1;fontFamily=Verdana;fontSize=12;align=center;" parent="2b4e8129b02d487f-4" vertex="1">
          <mxGeometry x="80" y="130" width="105" height="40.5" as="geometry" />
        </mxCell>
        <mxCell id="4Cs5pkkE4mOxZY2ZTMv_-41" value="Canvas" style="rounded=1;whiteSpace=wrap;html=1;shadow=0;labelBackgroundColor=none;strokeWidth=1;fontFamily=Verdana;fontSize=12;align=center;" parent="2b4e8129b02d487f-4" vertex="1">
          <mxGeometry x="240" y="130" width="105" height="40.5" as="geometry" />
        </mxCell>
        <mxCell id="4Cs5pkkE4mOxZY2ZTMv_-54" value="Audio Source" style="rounded=1;whiteSpace=wrap;html=1;shadow=0;labelBackgroundColor=none;strokeWidth=1;fontFamily=Verdana;fontSize=12;align=center;" parent="2b4e8129b02d487f-4" vertex="1">
          <mxGeometry x="410" y="130" width="105" height="40.5" as="geometry" />
        </mxCell>
        <mxCell id="4Cs5pkkE4mOxZY2ZTMv_-70" value="Canvas" style="rounded=1;whiteSpace=wrap;html=1;shadow=0;labelBackgroundColor=none;strokeWidth=1;fontFamily=Verdana;fontSize=12;align=center;" parent="2b4e8129b02d487f-4" vertex="1">
          <mxGeometry x="580" y="130" width="105" height="40.5" as="geometry" />
        </mxCell>
        <mxCell id="4Cs5pkkE4mOxZY2ZTMv_-15" value="Platform Type A" style="rounded=1;whiteSpace=wrap;html=1;shadow=0;labelBackgroundColor=none;strokeWidth=1;fontFamily=Verdana;fontSize=12;align=center;fillColor=#CCE5FF;" parent="2b4e8129b02d487f-4" vertex="1">
          <mxGeometry x="80" y="190" width="105" height="40.5" as="geometry" />
        </mxCell>
        <mxCell id="4Cs5pkkE4mOxZY2ZTMv_-55" value="Canvas" style="rounded=1;whiteSpace=wrap;html=1;shadow=0;labelBackgroundColor=none;strokeWidth=1;fontFamily=Verdana;fontSize=12;align=center;" parent="2b4e8129b02d487f-4" vertex="1">
          <mxGeometry x="410" y="190" width="105" height="40.5" as="geometry" />
        </mxCell>
        <mxCell id="4Cs5pkkE4mOxZY2ZTMv_-82" value="Background" style="rounded=1;whiteSpace=wrap;html=1;shadow=0;labelBackgroundColor=none;strokeWidth=1;fontFamily=Verdana;fontSize=12;align=center;" parent="2b4e8129b02d487f-4" vertex="1">
          <mxGeometry x="580" y="10" width="105" height="40.5" as="geometry" />
        </mxCell>
        <mxCell id="4Cs5pkkE4mOxZY2ZTMv_-83" value="Manger" style="rounded=1;whiteSpace=wrap;html=1;shadow=0;labelBackgroundColor=none;strokeWidth=1;fontFamily=Verdana;fontSize=12;align=center;" parent="2b4e8129b02d487f-4" vertex="1">
          <mxGeometry x="580" y="70" width="105" height="40.5" as="geometry" />
        </mxCell>
        <mxCell id="4Cs5pkkE4mOxZY2ZTMv_-84" value="Canvas" style="rounded=1;whiteSpace=wrap;html=1;shadow=0;labelBackgroundColor=none;strokeWidth=1;fontFamily=Verdana;fontSize=12;align=center;" parent="2b4e8129b02d487f-4" vertex="1">
          <mxGeometry x="580" y="130" width="105" height="40.5" as="geometry" />
        </mxCell>
        <mxCell id="4Cs5pkkE4mOxZY2ZTMv_-85" value="Manger" style="rounded=1;whiteSpace=wrap;html=1;shadow=0;labelBackgroundColor=none;strokeWidth=1;fontFamily=Verdana;fontSize=12;align=center;" parent="2b4e8129b02d487f-4" vertex="1">
          <mxGeometry x="410" y="70" width="105" height="40.5" as="geometry" />
        </mxCell>
        <mxCell id="4Cs5pkkE4mOxZY2ZTMv_-86" value="Background" style="rounded=1;whiteSpace=wrap;html=1;shadow=0;labelBackgroundColor=none;strokeWidth=1;fontFamily=Verdana;fontSize=12;align=center;" parent="2b4e8129b02d487f-4" vertex="1">
          <mxGeometry x="410" y="10" width="105" height="40.5" as="geometry" />
        </mxCell>
        <mxCell id="4Cs5pkkE4mOxZY2ZTMv_-87" value="Audio Source" style="rounded=1;whiteSpace=wrap;html=1;shadow=0;labelBackgroundColor=none;strokeWidth=1;fontFamily=Verdana;fontSize=12;align=center;" parent="2b4e8129b02d487f-4" vertex="1">
          <mxGeometry x="410" y="130" width="105" height="40.5" as="geometry" />
        </mxCell>
        <mxCell id="4Cs5pkkE4mOxZY2ZTMv_-88" value="Canvas" style="rounded=1;whiteSpace=wrap;html=1;shadow=0;labelBackgroundColor=none;strokeWidth=1;fontFamily=Verdana;fontSize=12;align=center;" parent="2b4e8129b02d487f-4" vertex="1">
          <mxGeometry x="410" y="190" width="105" height="40.5" as="geometry" />
        </mxCell>
        <mxCell id="4Cs5pkkE4mOxZY2ZTMv_-89" value="Canvas" style="rounded=1;whiteSpace=wrap;html=1;shadow=0;labelBackgroundColor=none;strokeWidth=1;fontFamily=Verdana;fontSize=12;align=center;" parent="2b4e8129b02d487f-4" vertex="1">
          <mxGeometry x="240" y="130" width="105" height="40.5" as="geometry" />
        </mxCell>
        <mxCell id="4Cs5pkkE4mOxZY2ZTMv_-90" value="Manager" style="rounded=1;whiteSpace=wrap;html=1;shadow=0;labelBackgroundColor=none;strokeWidth=1;fontFamily=Verdana;fontSize=12;align=center;" parent="2b4e8129b02d487f-4" vertex="1">
          <mxGeometry x="240" y="70" width="105" height="40.5" as="geometry" />
        </mxCell>
        <mxCell id="4Cs5pkkE4mOxZY2ZTMv_-91" value="Background" style="rounded=1;whiteSpace=wrap;html=1;shadow=0;labelBackgroundColor=none;strokeWidth=1;fontFamily=Verdana;fontSize=12;align=center;" parent="2b4e8129b02d487f-4" vertex="1">
          <mxGeometry x="240" y="10" width="105" height="40.5" as="geometry" />
        </mxCell>
        <mxCell id="4Cs5pkkE4mOxZY2ZTMv_-92" value="&lt;font style=&quot;font-size: 12px;&quot;&gt;Player&lt;/font&gt;" style="rounded=1;whiteSpace=wrap;html=1;shadow=0;labelBackgroundColor=none;strokeWidth=1;fontFamily=Verdana;fontSize=12;align=center;" parent="2b4e8129b02d487f-4" vertex="1">
          <mxGeometry x="80" y="10" width="105" height="40.5" as="geometry" />
        </mxCell>
        <mxCell id="4Cs5pkkE4mOxZY2ZTMv_-93" value="&lt;font style=&quot;font-size: 12px;&quot;&gt;World&lt;/font&gt;" style="rounded=1;whiteSpace=wrap;html=1;shadow=0;labelBackgroundColor=none;strokeWidth=1;fontFamily=Verdana;fontSize=12;align=center;" parent="2b4e8129b02d487f-4" vertex="1">
          <mxGeometry x="80" y="70" width="105" height="40.5" as="geometry" />
        </mxCell>
        <mxCell id="4Cs5pkkE4mOxZY2ZTMv_-94" value="Wood Box" style="rounded=1;whiteSpace=wrap;html=1;shadow=0;labelBackgroundColor=none;strokeWidth=1;fontFamily=Verdana;fontSize=12;align=center;" parent="2b4e8129b02d487f-4" vertex="1">
          <mxGeometry x="80" y="130" width="105" height="40.5" as="geometry" />
        </mxCell>
        <mxCell id="4Cs5pkkE4mOxZY2ZTMv_-16" value="Platform Type B" style="rounded=1;whiteSpace=wrap;html=1;shadow=0;labelBackgroundColor=none;strokeWidth=1;fontFamily=Verdana;fontSize=12;align=center;" parent="2b4e8129b02d487f-4" vertex="1">
          <mxGeometry x="80" y="250" width="105" height="40.5" as="geometry" />
        </mxCell>
        <mxCell id="4Cs5pkkE4mOxZY2ZTMv_-17" value="UIManager" style="rounded=1;whiteSpace=wrap;html=1;shadow=0;labelBackgroundColor=none;strokeWidth=1;fontFamily=Verdana;fontSize=12;align=center;" parent="2b4e8129b02d487f-4" vertex="1">
          <mxGeometry x="80" y="310" width="105" height="40.5" as="geometry" />
        </mxCell>
        <mxCell id="4Cs5pkkE4mOxZY2ZTMv_-95" value="Background" style="rounded=1;whiteSpace=wrap;html=1;shadow=0;labelBackgroundColor=none;strokeWidth=1;fontFamily=Verdana;fontSize=12;align=center;fillColor=#CCE5FF;" parent="2b4e8129b02d487f-4" vertex="1">
          <mxGeometry x="580" y="10" width="105" height="40.5" as="geometry" />
        </mxCell>
        <mxCell id="4Cs5pkkE4mOxZY2ZTMv_-96" value="Manger" style="rounded=1;whiteSpace=wrap;html=1;shadow=0;labelBackgroundColor=none;strokeWidth=1;fontFamily=Verdana;fontSize=12;align=center;fillColor=#CCE5FF;" parent="2b4e8129b02d487f-4" vertex="1">
          <mxGeometry x="580" y="70" width="105" height="40.5" as="geometry" />
        </mxCell>
        <mxCell id="4Cs5pkkE4mOxZY2ZTMv_-97" value="Canvas" style="rounded=1;whiteSpace=wrap;html=1;shadow=0;labelBackgroundColor=none;strokeWidth=1;fontFamily=Verdana;fontSize=12;align=center;fillColor=#CCE5FF;" parent="2b4e8129b02d487f-4" vertex="1">
          <mxGeometry x="580" y="130" width="105" height="40.5" as="geometry" />
        </mxCell>
        <mxCell id="4Cs5pkkE4mOxZY2ZTMv_-98" value="Manger" style="rounded=1;whiteSpace=wrap;html=1;shadow=0;labelBackgroundColor=none;strokeWidth=1;fontFamily=Verdana;fontSize=12;align=center;fillColor=#CCE5FF;" parent="2b4e8129b02d487f-4" vertex="1">
          <mxGeometry x="410" y="70" width="105" height="40.5" as="geometry" />
        </mxCell>
        <mxCell id="4Cs5pkkE4mOxZY2ZTMv_-99" value="Background" style="rounded=1;whiteSpace=wrap;html=1;shadow=0;labelBackgroundColor=none;strokeWidth=1;fontFamily=Verdana;fontSize=12;align=center;fillColor=#CCE5FF;" parent="2b4e8129b02d487f-4" vertex="1">
          <mxGeometry x="410" y="10" width="105" height="40.5" as="geometry" />
        </mxCell>
        <mxCell id="4Cs5pkkE4mOxZY2ZTMv_-100" value="Audio Source" style="rounded=1;whiteSpace=wrap;html=1;shadow=0;labelBackgroundColor=none;strokeWidth=1;fontFamily=Verdana;fontSize=12;align=center;fillColor=#CCE5FF;" parent="2b4e8129b02d487f-4" vertex="1">
          <mxGeometry x="410" y="130" width="105" height="40.5" as="geometry" />
        </mxCell>
        <mxCell id="4Cs5pkkE4mOxZY2ZTMv_-101" value="Canvas" style="rounded=1;whiteSpace=wrap;html=1;shadow=0;labelBackgroundColor=none;strokeWidth=1;fontFamily=Verdana;fontSize=12;align=center;fillColor=#CCE5FF;" parent="2b4e8129b02d487f-4" vertex="1">
          <mxGeometry x="410" y="190" width="105" height="40.5" as="geometry" />
        </mxCell>
        <mxCell id="4Cs5pkkE4mOxZY2ZTMv_-102" value="Canvas" style="rounded=1;whiteSpace=wrap;html=1;shadow=0;labelBackgroundColor=none;strokeWidth=1;fontFamily=Verdana;fontSize=12;align=center;fillColor=#CCE5FF;" parent="2b4e8129b02d487f-4" vertex="1">
          <mxGeometry x="240" y="130" width="105" height="40.5" as="geometry" />
        </mxCell>
        <mxCell id="4Cs5pkkE4mOxZY2ZTMv_-103" value="Manager" style="rounded=1;whiteSpace=wrap;html=1;shadow=0;labelBackgroundColor=none;strokeWidth=1;fontFamily=Verdana;fontSize=12;align=center;fillColor=#CCE5FF;" parent="2b4e8129b02d487f-4" vertex="1">
          <mxGeometry x="240" y="70" width="105" height="40.5" as="geometry" />
        </mxCell>
        <mxCell id="4Cs5pkkE4mOxZY2ZTMv_-104" value="Background" style="rounded=1;whiteSpace=wrap;html=1;shadow=0;labelBackgroundColor=none;strokeWidth=1;fontFamily=Verdana;fontSize=12;align=center;fillColor=#CCE5FF;" parent="2b4e8129b02d487f-4" vertex="1">
          <mxGeometry x="240" y="10" width="105" height="40.5" as="geometry" />
        </mxCell>
        <mxCell id="4Cs5pkkE4mOxZY2ZTMv_-105" value="&lt;font style=&quot;font-size: 12px;&quot;&gt;Player&lt;/font&gt;" style="rounded=1;whiteSpace=wrap;html=1;shadow=0;labelBackgroundColor=none;strokeWidth=1;fontFamily=Verdana;fontSize=12;align=center;fillColor=#CCE5FF;" parent="2b4e8129b02d487f-4" vertex="1">
          <mxGeometry x="80" y="10" width="105" height="40.5" as="geometry" />
        </mxCell>
        <mxCell id="4Cs5pkkE4mOxZY2ZTMv_-106" value="&lt;font style=&quot;font-size: 12px;&quot;&gt;World&lt;/font&gt;" style="rounded=1;whiteSpace=wrap;html=1;shadow=0;labelBackgroundColor=none;strokeWidth=1;fontFamily=Verdana;fontSize=12;align=center;fillColor=#CCE5FF;" parent="2b4e8129b02d487f-4" vertex="1">
          <mxGeometry x="80" y="70" width="105" height="40.5" as="geometry" />
        </mxCell>
        <mxCell id="4Cs5pkkE4mOxZY2ZTMv_-107" value="Wood Box" style="rounded=1;whiteSpace=wrap;html=1;shadow=0;labelBackgroundColor=none;strokeWidth=1;fontFamily=Verdana;fontSize=12;align=center;fillColor=#CCE5FF;" parent="2b4e8129b02d487f-4" vertex="1">
          <mxGeometry x="80" y="130" width="105" height="40.5" as="geometry" />
        </mxCell>
        <mxCell id="4Cs5pkkE4mOxZY2ZTMv_-108" value="Platform Type B" style="rounded=1;whiteSpace=wrap;html=1;shadow=0;labelBackgroundColor=none;strokeWidth=1;fontFamily=Verdana;fontSize=12;align=center;fillColor=#CCE5FF;" parent="2b4e8129b02d487f-4" vertex="1">
          <mxGeometry x="80" y="250" width="105" height="40.5" as="geometry" />
        </mxCell>
        <mxCell id="4Cs5pkkE4mOxZY2ZTMv_-109" value="UIManager" style="rounded=1;whiteSpace=wrap;html=1;shadow=0;labelBackgroundColor=none;strokeWidth=1;fontFamily=Verdana;fontSize=12;align=center;fillColor=#CCE5FF;" parent="2b4e8129b02d487f-4" vertex="1">
          <mxGeometry x="80" y="310" width="105" height="40.5" as="geometry" />
        </mxCell>
        <mxCell id="4Cs5pkkE4mOxZY2ZTMv_-18" value="Canvas" style="rounded=1;whiteSpace=wrap;html=1;shadow=0;labelBackgroundColor=none;strokeWidth=1;fontFamily=Verdana;fontSize=12;align=center;fillColor=#CCE5FF;" parent="2b4e8129b02d487f-4" vertex="1">
          <mxGeometry x="80" y="370" width="105" height="40.5" as="geometry" />
        </mxCell>
        <mxCell id="4Cs5pkkE4mOxZY2ZTMv_-1" value="Workload" style="swimlane;html=1;startSize=20;horizontal=0;" parent="2b4e8129b02d487f-1" vertex="1">
          <mxGeometry y="690" width="730" height="260" as="geometry" />
        </mxCell>
        <mxCell id="4Cs5pkkE4mOxZY2ZTMv_-71" value="Settings Button" style="rounded=1;whiteSpace=wrap;html=1;shadow=0;labelBackgroundColor=none;strokeWidth=1;fontFamily=Verdana;fontSize=12;align=center;fillColor=#E6D0DE;" parent="4Cs5pkkE4mOxZY2ZTMv_-1" vertex="1">
          <mxGeometry x="600" y="20" width="105" height="40.5" as="geometry" />
        </mxCell>
        <mxCell id="4Cs5pkkE4mOxZY2ZTMv_-42" value="Story Button" style="rounded=1;whiteSpace=wrap;html=1;shadow=0;labelBackgroundColor=none;strokeWidth=1;fontFamily=Verdana;fontSize=12;align=center;fillColor=#E6D0DE;" parent="4Cs5pkkE4mOxZY2ZTMv_-1" vertex="1">
          <mxGeometry x="260" y="20" width="105" height="40.5" as="geometry" />
        </mxCell>
        <mxCell id="4Cs5pkkE4mOxZY2ZTMv_-19" value="Score Display" style="rounded=1;whiteSpace=wrap;html=1;shadow=0;labelBackgroundColor=none;strokeWidth=1;fontFamily=Verdana;fontSize=12;align=center;fillColor=#E6D0DE;" parent="4Cs5pkkE4mOxZY2ZTMv_-1" vertex="1">
          <mxGeometry x="100" y="20" width="105" height="40.5" as="geometry" />
        </mxCell>
        <mxCell id="4Cs5pkkE4mOxZY2ZTMv_-56" value="Start Button" style="rounded=1;whiteSpace=wrap;html=1;shadow=0;labelBackgroundColor=none;strokeWidth=1;fontFamily=Verdana;fontSize=12;align=center;fillColor=#E6D0DE;" parent="4Cs5pkkE4mOxZY2ZTMv_-1" vertex="1">
          <mxGeometry x="430" y="20" width="105" height="40.5" as="geometry" />
        </mxCell>
        <mxCell id="4Cs5pkkE4mOxZY2ZTMv_-72" value="Sound Button" style="rounded=1;whiteSpace=wrap;html=1;shadow=0;labelBackgroundColor=none;strokeWidth=1;fontFamily=Verdana;fontSize=12;align=center;fillColor=#E6D0DE;" parent="4Cs5pkkE4mOxZY2ZTMv_-1" vertex="1">
          <mxGeometry x="600" y="80" width="105" height="40.5" as="geometry" />
        </mxCell>
        <mxCell id="4Cs5pkkE4mOxZY2ZTMv_-20" value="Pause Text" style="rounded=1;whiteSpace=wrap;html=1;shadow=0;labelBackgroundColor=none;strokeWidth=1;fontFamily=Verdana;fontSize=12;align=center;fillColor=#E6D0DE;" parent="4Cs5pkkE4mOxZY2ZTMv_-1" vertex="1">
          <mxGeometry x="100" y="80" width="105" height="40.5" as="geometry" />
        </mxCell>
        <mxCell id="4Cs5pkkE4mOxZY2ZTMv_-43" value="Chapter 1 Button" style="rounded=1;whiteSpace=wrap;html=1;shadow=0;labelBackgroundColor=none;strokeWidth=1;fontFamily=Verdana;fontSize=12;align=center;fillColor=#E6D0DE;" parent="4Cs5pkkE4mOxZY2ZTMv_-1" vertex="1">
          <mxGeometry x="260" y="80" width="105" height="40.5" as="geometry" />
        </mxCell>
        <mxCell id="4Cs5pkkE4mOxZY2ZTMv_-57" value="Settings Button" style="rounded=1;whiteSpace=wrap;html=1;shadow=0;labelBackgroundColor=none;strokeWidth=1;fontFamily=Verdana;fontSize=12;align=center;fillColor=#E6D0DE;" parent="4Cs5pkkE4mOxZY2ZTMv_-1" vertex="1">
          <mxGeometry x="430" y="80" width="105" height="40.5" as="geometry" />
        </mxCell>
        <mxCell id="4Cs5pkkE4mOxZY2ZTMv_-44" value="Image" style="rounded=1;whiteSpace=wrap;html=1;shadow=0;labelBackgroundColor=none;strokeWidth=1;fontFamily=Verdana;fontSize=12;align=center;fillColor=#E6D0DE;" parent="4Cs5pkkE4mOxZY2ZTMv_-1" vertex="1">
          <mxGeometry x="260" y="140" width="105" height="40.5" as="geometry" />
        </mxCell>
        <mxCell id="4Cs5pkkE4mOxZY2ZTMv_-33" value="Resume Button" style="rounded=1;whiteSpace=wrap;html=1;shadow=0;labelBackgroundColor=none;strokeWidth=1;fontFamily=Verdana;fontSize=12;align=center;fillColor=#E6D0DE;" parent="4Cs5pkkE4mOxZY2ZTMv_-1" vertex="1">
          <mxGeometry x="100" y="140" width="105" height="40.5" as="geometry" />
        </mxCell>
        <mxCell id="4Cs5pkkE4mOxZY2ZTMv_-58" value="Image" style="rounded=1;whiteSpace=wrap;html=1;shadow=0;labelBackgroundColor=none;strokeWidth=1;fontFamily=Verdana;fontSize=12;align=center;fillColor=#E6D0DE;" parent="4Cs5pkkE4mOxZY2ZTMv_-1" vertex="1">
          <mxGeometry x="430" y="140" width="105" height="40.5" as="geometry" />
        </mxCell>
        <mxCell id="4Cs5pkkE4mOxZY2ZTMv_-73" value="About us" style="rounded=1;whiteSpace=wrap;html=1;shadow=0;labelBackgroundColor=none;strokeWidth=1;fontFamily=Verdana;fontSize=12;align=center;fillColor=#E6D0DE;" parent="4Cs5pkkE4mOxZY2ZTMv_-1" vertex="1">
          <mxGeometry x="600" y="140" width="105" height="40.5" as="geometry" />
        </mxCell>
        <mxCell id="4Cs5pkkE4mOxZY2ZTMv_-74" value="Image" style="rounded=1;whiteSpace=wrap;html=1;shadow=0;labelBackgroundColor=none;strokeWidth=1;fontFamily=Verdana;fontSize=12;align=center;fillColor=#E6D0DE;" parent="4Cs5pkkE4mOxZY2ZTMv_-1" vertex="1">
          <mxGeometry x="600" y="200" width="105" height="40.5" as="geometry" />
        </mxCell>
        <mxCell id="4Cs5pkkE4mOxZY2ZTMv_-34" value="End Button" style="rounded=1;whiteSpace=wrap;html=1;shadow=0;labelBackgroundColor=none;strokeWidth=1;fontFamily=Verdana;fontSize=12;align=center;fillColor=#E6D0DE;" parent="4Cs5pkkE4mOxZY2ZTMv_-1" vertex="1">
          <mxGeometry x="100" y="200" width="105" height="40.5" as="geometry" />
        </mxCell>
        <mxCell id="4Cs5pkkE4mOxZY2ZTMv_-8" style="edgeStyle=orthogonalEdgeStyle;rounded=0;orthogonalLoop=1;jettySize=auto;html=1;exitX=0;exitY=1;exitDx=0;exitDy=0;" parent="2b4e8129b02d487f-1" source="2b4e8129b02d487f-7" target="4Cs5pkkE4mOxZY2ZTMv_-2" edge="1">
          <mxGeometry relative="1" as="geometry">
            <Array as="points">
              <mxPoint x="298" y="100" />
              <mxPoint x="113" y="100" />
            </Array>
          </mxGeometry>
        </mxCell>
        <mxCell id="4Cs5pkkE4mOxZY2ZTMv_-9" style="edgeStyle=orthogonalEdgeStyle;rounded=0;orthogonalLoop=1;jettySize=auto;html=1;exitX=0.25;exitY=1;exitDx=0;exitDy=0;entryX=0.5;entryY=0;entryDx=0;entryDy=0;" parent="2b4e8129b02d487f-1" source="2b4e8129b02d487f-7" target="4Cs5pkkE4mOxZY2ZTMv_-3" edge="1">
          <mxGeometry relative="1" as="geometry" />
        </mxCell>
        <mxCell id="4Cs5pkkE4mOxZY2ZTMv_-10" style="edgeStyle=orthogonalEdgeStyle;rounded=0;orthogonalLoop=1;jettySize=auto;html=1;exitX=0.75;exitY=1;exitDx=0;exitDy=0;entryX=0.5;entryY=0;entryDx=0;entryDy=0;" parent="2b4e8129b02d487f-1" source="2b4e8129b02d487f-7" target="4Cs5pkkE4mOxZY2ZTMv_-5" edge="1">
          <mxGeometry relative="1" as="geometry" />
        </mxCell>
        <mxCell id="4Cs5pkkE4mOxZY2ZTMv_-11" style="edgeStyle=orthogonalEdgeStyle;rounded=0;orthogonalLoop=1;jettySize=auto;html=1;exitX=1;exitY=1;exitDx=0;exitDy=0;" parent="2b4e8129b02d487f-1" source="2b4e8129b02d487f-7" target="4Cs5pkkE4mOxZY2ZTMv_-4" edge="1">
          <mxGeometry relative="1" as="geometry">
            <Array as="points">
              <mxPoint x="403" y="100" />
              <mxPoint x="608" y="100" />
            </Array>
          </mxGeometry>
        </mxCell>
        <mxCell id="4Cs5pkkE4mOxZY2ZTMv_-23" style="edgeStyle=orthogonalEdgeStyle;rounded=0;orthogonalLoop=1;jettySize=auto;html=1;exitX=0;exitY=1;exitDx=0;exitDy=0;entryX=0;entryY=0.5;entryDx=0;entryDy=0;fontSize=12;" parent="2b4e8129b02d487f-1" source="4Cs5pkkE4mOxZY2ZTMv_-2" target="4Cs5pkkE4mOxZY2ZTMv_-18" edge="1">
          <mxGeometry relative="1" as="geometry" />
        </mxCell>
        <mxCell id="4Cs5pkkE4mOxZY2ZTMv_-26" style="edgeStyle=orthogonalEdgeStyle;rounded=0;orthogonalLoop=1;jettySize=auto;html=1;exitX=0;exitY=1;exitDx=0;exitDy=0;entryX=0;entryY=0.5;entryDx=0;entryDy=0;fontSize=12;" parent="2b4e8129b02d487f-1" source="4Cs5pkkE4mOxZY2ZTMv_-2" target="4Cs5pkkE4mOxZY2ZTMv_-18" edge="1">
          <mxGeometry relative="1" as="geometry">
            <mxPoint x="240" y="275.25" as="sourcePoint" />
            <mxPoint x="260" y="720.25" as="targetPoint" />
            <Array as="points">
              <mxPoint x="60" y="650" />
            </Array>
          </mxGeometry>
        </mxCell>
        <mxCell id="4Cs5pkkE4mOxZY2ZTMv_-27" style="edgeStyle=orthogonalEdgeStyle;rounded=0;html=1;labelBackgroundColor=none;startArrow=none;startFill=0;startSize=5;endArrow=classicThin;endFill=1;endSize=5;jettySize=auto;orthogonalLoop=1;strokeWidth=1;fontFamily=Verdana;fontSize=8;exitX=0;exitY=1;exitDx=0;exitDy=0;entryX=0;entryY=0.5;entryDx=0;entryDy=0;" parent="2b4e8129b02d487f-1" source="4Cs5pkkE4mOxZY2ZTMv_-2" target="4Cs5pkkE4mOxZY2ZTMv_-17" edge="1">
          <mxGeometry relative="1" as="geometry">
            <mxPoint x="760" y="355" as="sourcePoint" />
            <mxPoint x="740" y="475" as="targetPoint" />
          </mxGeometry>
        </mxCell>
        <mxCell id="4Cs5pkkE4mOxZY2ZTMv_-28" style="edgeStyle=orthogonalEdgeStyle;rounded=0;html=1;labelBackgroundColor=none;startArrow=none;startFill=0;startSize=5;endArrow=classicThin;endFill=1;endSize=5;jettySize=auto;orthogonalLoop=1;strokeWidth=1;fontFamily=Verdana;fontSize=8;exitX=0;exitY=1;exitDx=0;exitDy=0;entryX=0;entryY=0.5;entryDx=0;entryDy=0;" parent="2b4e8129b02d487f-1" source="4Cs5pkkE4mOxZY2ZTMv_-2" target="4Cs5pkkE4mOxZY2ZTMv_-16" edge="1">
          <mxGeometry relative="1" as="geometry">
            <mxPoint x="790" y="370" as="sourcePoint" />
            <mxPoint x="770" y="490" as="targetPoint" />
          </mxGeometry>
        </mxCell>
        <mxCell id="4Cs5pkkE4mOxZY2ZTMv_-29" style="edgeStyle=orthogonalEdgeStyle;rounded=0;html=1;labelBackgroundColor=none;startArrow=none;startFill=0;startSize=5;endArrow=classicThin;endFill=1;endSize=5;jettySize=auto;orthogonalLoop=1;strokeWidth=1;fontFamily=Verdana;fontSize=8;exitX=0;exitY=1;exitDx=0;exitDy=0;entryX=0;entryY=0.5;entryDx=0;entryDy=0;" parent="2b4e8129b02d487f-1" source="4Cs5pkkE4mOxZY2ZTMv_-2" target="4Cs5pkkE4mOxZY2ZTMv_-15" edge="1">
          <mxGeometry relative="1" as="geometry">
            <mxPoint x="840" y="480" as="sourcePoint" />
            <mxPoint x="820" y="600" as="targetPoint" />
          </mxGeometry>
        </mxCell>
        <mxCell id="4Cs5pkkE4mOxZY2ZTMv_-32" style="edgeStyle=orthogonalEdgeStyle;rounded=0;html=1;labelBackgroundColor=none;startArrow=none;startFill=0;startSize=5;endArrow=classicThin;endFill=1;endSize=5;jettySize=auto;orthogonalLoop=1;strokeWidth=1;fontFamily=Verdana;fontSize=8;exitX=0;exitY=1;exitDx=0;exitDy=0;entryX=0;entryY=0.5;entryDx=0;entryDy=0;" parent="2b4e8129b02d487f-1" source="4Cs5pkkE4mOxZY2ZTMv_-2" target="4Cs5pkkE4mOxZY2ZTMv_-14" edge="1">
          <mxGeometry relative="1" as="geometry">
            <mxPoint x="760" y="580" as="sourcePoint" />
            <mxPoint x="740" y="700" as="targetPoint" />
          </mxGeometry>
        </mxCell>
        <mxCell id="4Cs5pkkE4mOxZY2ZTMv_-31" style="edgeStyle=orthogonalEdgeStyle;rounded=0;html=1;labelBackgroundColor=none;startArrow=none;startFill=0;startSize=5;endArrow=classicThin;endFill=1;endSize=5;jettySize=auto;orthogonalLoop=1;strokeWidth=1;fontFamily=Verdana;fontSize=8;exitX=0;exitY=1;exitDx=0;exitDy=0;entryX=0;entryY=0.5;entryDx=0;entryDy=0;" parent="2b4e8129b02d487f-1" source="4Cs5pkkE4mOxZY2ZTMv_-2" target="4Cs5pkkE4mOxZY2ZTMv_-13" edge="1">
          <mxGeometry relative="1" as="geometry">
            <mxPoint x="860" y="500" as="sourcePoint" />
            <mxPoint x="840" y="620" as="targetPoint" />
          </mxGeometry>
        </mxCell>
        <mxCell id="4Cs5pkkE4mOxZY2ZTMv_-30" style="edgeStyle=orthogonalEdgeStyle;rounded=0;html=1;labelBackgroundColor=none;startArrow=none;startFill=0;startSize=5;endArrow=classicThin;endFill=1;endSize=5;jettySize=auto;orthogonalLoop=1;strokeWidth=1;fontFamily=Verdana;fontSize=8;exitX=0;exitY=1;exitDx=0;exitDy=0;entryX=0;entryY=0.5;entryDx=0;entryDy=0;" parent="2b4e8129b02d487f-1" source="4Cs5pkkE4mOxZY2ZTMv_-2" target="4Cs5pkkE4mOxZY2ZTMv_-12" edge="1">
          <mxGeometry relative="1" as="geometry">
            <mxPoint x="800" y="355" as="sourcePoint" />
            <mxPoint x="780" y="475" as="targetPoint" />
          </mxGeometry>
        </mxCell>
        <mxCell id="4Cs5pkkE4mOxZY2ZTMv_-35" style="edgeStyle=orthogonalEdgeStyle;rounded=0;html=1;labelBackgroundColor=none;startArrow=none;startFill=0;startSize=5;endArrow=classicThin;endFill=1;endSize=5;jettySize=auto;orthogonalLoop=1;strokeWidth=1;fontFamily=Verdana;fontSize=8;exitX=0;exitY=1;exitDx=0;exitDy=0;entryX=0;entryY=0.5;entryDx=0;entryDy=0;" parent="2b4e8129b02d487f-1" source="4Cs5pkkE4mOxZY2ZTMv_-18" target="4Cs5pkkE4mOxZY2ZTMv_-19" edge="1">
          <mxGeometry relative="1" as="geometry">
            <mxPoint x="780" y="600" as="sourcePoint" />
            <mxPoint x="760" y="720" as="targetPoint" />
          </mxGeometry>
        </mxCell>
        <mxCell id="4Cs5pkkE4mOxZY2ZTMv_-37" style="edgeStyle=orthogonalEdgeStyle;rounded=0;html=1;labelBackgroundColor=none;startArrow=none;startFill=0;startSize=5;endArrow=classicThin;endFill=1;endSize=5;jettySize=auto;orthogonalLoop=1;strokeWidth=1;fontFamily=Verdana;fontSize=8;exitX=0;exitY=1;exitDx=0;exitDy=0;entryX=0;entryY=0.5;entryDx=0;entryDy=0;" parent="2b4e8129b02d487f-1" source="4Cs5pkkE4mOxZY2ZTMv_-18" target="4Cs5pkkE4mOxZY2ZTMv_-20" edge="1">
          <mxGeometry relative="1" as="geometry">
            <mxPoint x="780" y="780" as="sourcePoint" />
            <mxPoint x="760" y="900" as="targetPoint" />
          </mxGeometry>
        </mxCell>
        <mxCell id="4Cs5pkkE4mOxZY2ZTMv_-36" style="edgeStyle=orthogonalEdgeStyle;rounded=0;html=1;labelBackgroundColor=none;startArrow=none;startFill=0;startSize=5;endArrow=classicThin;endFill=1;endSize=5;jettySize=auto;orthogonalLoop=1;strokeWidth=1;fontFamily=Verdana;fontSize=8;exitX=0;exitY=1;exitDx=0;exitDy=0;entryX=0;entryY=0.5;entryDx=0;entryDy=0;" parent="2b4e8129b02d487f-1" source="4Cs5pkkE4mOxZY2ZTMv_-18" target="4Cs5pkkE4mOxZY2ZTMv_-33" edge="1">
          <mxGeometry relative="1" as="geometry">
            <mxPoint x="840" y="710" as="sourcePoint" />
            <mxPoint x="820" y="830" as="targetPoint" />
          </mxGeometry>
        </mxCell>
        <mxCell id="4Cs5pkkE4mOxZY2ZTMv_-38" style="edgeStyle=orthogonalEdgeStyle;rounded=0;html=1;labelBackgroundColor=none;startArrow=none;startFill=0;startSize=5;endArrow=classicThin;endFill=1;endSize=5;jettySize=auto;orthogonalLoop=1;strokeWidth=1;fontFamily=Verdana;fontSize=8;exitX=0;exitY=1;exitDx=0;exitDy=0;entryX=0;entryY=0.5;entryDx=0;entryDy=0;" parent="2b4e8129b02d487f-1" source="4Cs5pkkE4mOxZY2ZTMv_-18" target="4Cs5pkkE4mOxZY2ZTMv_-34" edge="1">
          <mxGeometry relative="1" as="geometry">
            <mxPoint x="840" y="860" as="sourcePoint" />
            <mxPoint x="820" y="980" as="targetPoint" />
          </mxGeometry>
        </mxCell>
        <mxCell id="4Cs5pkkE4mOxZY2ZTMv_-45" style="edgeStyle=orthogonalEdgeStyle;rounded=0;html=1;labelBackgroundColor=none;startArrow=none;startFill=0;startSize=5;endArrow=classicThin;endFill=1;endSize=5;jettySize=auto;orthogonalLoop=1;strokeWidth=1;fontFamily=Verdana;fontSize=8;exitX=0;exitY=1;exitDx=0;exitDy=0;entryX=0;entryY=0.5;entryDx=0;entryDy=0;" parent="2b4e8129b02d487f-1" source="4Cs5pkkE4mOxZY2ZTMv_-3" target="4Cs5pkkE4mOxZY2ZTMv_-39" edge="1">
          <mxGeometry relative="1" as="geometry">
            <mxPoint x="770" y="270" as="sourcePoint" />
            <mxPoint x="750" y="390" as="targetPoint" />
          </mxGeometry>
        </mxCell>
        <mxCell id="4Cs5pkkE4mOxZY2ZTMv_-46" style="edgeStyle=orthogonalEdgeStyle;rounded=0;html=1;labelBackgroundColor=none;startArrow=none;startFill=0;startSize=5;endArrow=classicThin;endFill=1;endSize=5;jettySize=auto;orthogonalLoop=1;strokeWidth=1;fontFamily=Verdana;fontSize=8;exitX=0;exitY=1;exitDx=0;exitDy=0;entryX=0;entryY=0.5;entryDx=0;entryDy=0;" parent="2b4e8129b02d487f-1" source="4Cs5pkkE4mOxZY2ZTMv_-3" target="4Cs5pkkE4mOxZY2ZTMv_-40" edge="1">
          <mxGeometry relative="1" as="geometry">
            <mxPoint x="800" y="360" as="sourcePoint" />
            <mxPoint x="780" y="480" as="targetPoint" />
          </mxGeometry>
        </mxCell>
        <mxCell id="4Cs5pkkE4mOxZY2ZTMv_-47" style="edgeStyle=orthogonalEdgeStyle;rounded=0;html=1;labelBackgroundColor=none;startArrow=none;startFill=0;startSize=5;endArrow=classicThin;endFill=1;endSize=5;jettySize=auto;orthogonalLoop=1;strokeWidth=1;fontFamily=Verdana;fontSize=8;exitX=0;exitY=1;exitDx=0;exitDy=0;entryX=0;entryY=0.5;entryDx=0;entryDy=0;" parent="2b4e8129b02d487f-1" source="4Cs5pkkE4mOxZY2ZTMv_-3" target="4Cs5pkkE4mOxZY2ZTMv_-41" edge="1">
          <mxGeometry relative="1" as="geometry">
            <mxPoint x="760" y="420" as="sourcePoint" />
            <mxPoint x="740" y="540" as="targetPoint" />
          </mxGeometry>
        </mxCell>
        <mxCell id="4Cs5pkkE4mOxZY2ZTMv_-48" style="edgeStyle=orthogonalEdgeStyle;rounded=0;html=1;labelBackgroundColor=none;startArrow=none;startFill=0;startSize=5;endArrow=classicThin;endFill=1;endSize=5;jettySize=auto;orthogonalLoop=1;strokeWidth=1;fontFamily=Verdana;fontSize=8;exitX=0;exitY=1;exitDx=0;exitDy=0;entryX=0;entryY=0.5;entryDx=0;entryDy=0;" parent="2b4e8129b02d487f-1" source="4Cs5pkkE4mOxZY2ZTMv_-41" target="4Cs5pkkE4mOxZY2ZTMv_-42" edge="1">
          <mxGeometry relative="1" as="geometry">
            <mxPoint x="860" y="510" as="sourcePoint" />
            <mxPoint x="840" y="630" as="targetPoint" />
          </mxGeometry>
        </mxCell>
        <mxCell id="4Cs5pkkE4mOxZY2ZTMv_-49" style="edgeStyle=orthogonalEdgeStyle;rounded=0;html=1;labelBackgroundColor=none;startArrow=none;startFill=0;startSize=5;endArrow=classicThin;endFill=1;endSize=5;jettySize=auto;orthogonalLoop=1;strokeWidth=1;fontFamily=Verdana;fontSize=8;exitX=0;exitY=1;exitDx=0;exitDy=0;entryX=0;entryY=0.5;entryDx=0;entryDy=0;" parent="2b4e8129b02d487f-1" source="4Cs5pkkE4mOxZY2ZTMv_-41" target="4Cs5pkkE4mOxZY2ZTMv_-43" edge="1">
          <mxGeometry relative="1" as="geometry">
            <mxPoint x="800" y="570" as="sourcePoint" />
            <mxPoint x="780" y="690" as="targetPoint" />
          </mxGeometry>
        </mxCell>
        <mxCell id="4Cs5pkkE4mOxZY2ZTMv_-50" style="edgeStyle=orthogonalEdgeStyle;rounded=0;html=1;labelBackgroundColor=none;startArrow=none;startFill=0;startSize=5;endArrow=classicThin;endFill=1;endSize=5;jettySize=auto;orthogonalLoop=1;strokeWidth=1;fontFamily=Verdana;fontSize=8;exitX=0;exitY=1;exitDx=0;exitDy=0;entryX=0;entryY=0.5;entryDx=0;entryDy=0;" parent="2b4e8129b02d487f-1" source="4Cs5pkkE4mOxZY2ZTMv_-41" target="4Cs5pkkE4mOxZY2ZTMv_-44" edge="1">
          <mxGeometry relative="1" as="geometry">
            <mxPoint x="830" y="620" as="sourcePoint" />
            <mxPoint x="810" y="740" as="targetPoint" />
          </mxGeometry>
        </mxCell>
        <mxCell id="4Cs5pkkE4mOxZY2ZTMv_-59" style="edgeStyle=orthogonalEdgeStyle;rounded=0;html=1;labelBackgroundColor=none;startArrow=none;startFill=0;startSize=5;endArrow=classicThin;endFill=1;endSize=5;jettySize=auto;orthogonalLoop=1;strokeWidth=1;fontFamily=Verdana;fontSize=8;exitX=0;exitY=1;exitDx=0;exitDy=0;entryX=0;entryY=0.5;entryDx=0;entryDy=0;" parent="2b4e8129b02d487f-1" source="4Cs5pkkE4mOxZY2ZTMv_-5" target="4Cs5pkkE4mOxZY2ZTMv_-52" edge="1">
          <mxGeometry relative="1" as="geometry">
            <mxPoint x="790" y="320" as="sourcePoint" />
            <mxPoint x="770" y="440" as="targetPoint" />
          </mxGeometry>
        </mxCell>
        <mxCell id="4Cs5pkkE4mOxZY2ZTMv_-62" style="edgeStyle=orthogonalEdgeStyle;rounded=0;html=1;labelBackgroundColor=none;startArrow=none;startFill=0;startSize=5;endArrow=classicThin;endFill=1;endSize=5;jettySize=auto;orthogonalLoop=1;strokeWidth=1;fontFamily=Verdana;fontSize=8;exitX=0;exitY=1;exitDx=0;exitDy=0;entryX=0;entryY=0.5;entryDx=0;entryDy=0;" parent="2b4e8129b02d487f-1" source="4Cs5pkkE4mOxZY2ZTMv_-5" target="4Cs5pkkE4mOxZY2ZTMv_-53" edge="1">
          <mxGeometry relative="1" as="geometry">
            <mxPoint x="760" y="430" as="sourcePoint" />
            <mxPoint x="740" y="550" as="targetPoint" />
          </mxGeometry>
        </mxCell>
        <mxCell id="4Cs5pkkE4mOxZY2ZTMv_-61" style="edgeStyle=orthogonalEdgeStyle;rounded=0;html=1;labelBackgroundColor=none;startArrow=none;startFill=0;startSize=5;endArrow=classicThin;endFill=1;endSize=5;jettySize=auto;orthogonalLoop=1;strokeWidth=1;fontFamily=Verdana;fontSize=8;exitX=0;exitY=1;exitDx=0;exitDy=0;entryX=0;entryY=0.5;entryDx=0;entryDy=0;" parent="2b4e8129b02d487f-1" source="4Cs5pkkE4mOxZY2ZTMv_-5" target="4Cs5pkkE4mOxZY2ZTMv_-54" edge="1">
          <mxGeometry relative="1" as="geometry">
            <mxPoint x="810" y="390" as="sourcePoint" />
            <mxPoint x="790" y="510" as="targetPoint" />
          </mxGeometry>
        </mxCell>
        <mxCell id="4Cs5pkkE4mOxZY2ZTMv_-60" style="edgeStyle=orthogonalEdgeStyle;rounded=0;html=1;labelBackgroundColor=none;startArrow=none;startFill=0;startSize=5;endArrow=classicThin;endFill=1;endSize=5;jettySize=auto;orthogonalLoop=1;strokeWidth=1;fontFamily=Verdana;fontSize=8;exitX=0;exitY=1;exitDx=0;exitDy=0;entryX=0;entryY=0.5;entryDx=0;entryDy=0;" parent="2b4e8129b02d487f-1" source="4Cs5pkkE4mOxZY2ZTMv_-5" target="4Cs5pkkE4mOxZY2ZTMv_-55" edge="1">
          <mxGeometry relative="1" as="geometry">
            <mxPoint x="850" y="355" as="sourcePoint" />
            <mxPoint x="830" y="475" as="targetPoint" />
          </mxGeometry>
        </mxCell>
        <mxCell id="4Cs5pkkE4mOxZY2ZTMv_-63" style="edgeStyle=orthogonalEdgeStyle;rounded=0;html=1;labelBackgroundColor=none;startArrow=none;startFill=0;startSize=5;endArrow=classicThin;endFill=1;endSize=5;jettySize=auto;orthogonalLoop=1;strokeWidth=1;fontFamily=Verdana;fontSize=8;exitX=0;exitY=1;exitDx=0;exitDy=0;entryX=0;entryY=0.5;entryDx=0;entryDy=0;" parent="2b4e8129b02d487f-1" source="4Cs5pkkE4mOxZY2ZTMv_-55" target="4Cs5pkkE4mOxZY2ZTMv_-56" edge="1">
          <mxGeometry relative="1" as="geometry">
            <mxPoint x="790" y="590" as="sourcePoint" />
            <mxPoint x="770" y="710" as="targetPoint" />
          </mxGeometry>
        </mxCell>
        <mxCell id="4Cs5pkkE4mOxZY2ZTMv_-64" style="edgeStyle=orthogonalEdgeStyle;rounded=0;html=1;labelBackgroundColor=none;startArrow=none;startFill=0;startSize=5;endArrow=classicThin;endFill=1;endSize=5;jettySize=auto;orthogonalLoop=1;strokeWidth=1;fontFamily=Verdana;fontSize=8;exitX=0;exitY=1;exitDx=0;exitDy=0;entryX=0;entryY=0.5;entryDx=0;entryDy=0;" parent="2b4e8129b02d487f-1" source="4Cs5pkkE4mOxZY2ZTMv_-55" target="4Cs5pkkE4mOxZY2ZTMv_-57" edge="1">
          <mxGeometry relative="1" as="geometry">
            <mxPoint x="820" y="620" as="sourcePoint" />
            <mxPoint x="800" y="740" as="targetPoint" />
          </mxGeometry>
        </mxCell>
        <mxCell id="4Cs5pkkE4mOxZY2ZTMv_-65" style="edgeStyle=orthogonalEdgeStyle;rounded=0;html=1;labelBackgroundColor=none;startArrow=none;startFill=0;startSize=5;endArrow=classicThin;endFill=1;endSize=5;jettySize=auto;orthogonalLoop=1;strokeWidth=1;fontFamily=Verdana;fontSize=8;exitX=0;exitY=1;exitDx=0;exitDy=0;entryX=0;entryY=0.5;entryDx=0;entryDy=0;" parent="2b4e8129b02d487f-1" source="4Cs5pkkE4mOxZY2ZTMv_-55" target="4Cs5pkkE4mOxZY2ZTMv_-58" edge="1">
          <mxGeometry relative="1" as="geometry">
            <mxPoint x="860" y="640" as="sourcePoint" />
            <mxPoint x="840" y="760" as="targetPoint" />
          </mxGeometry>
        </mxCell>
        <mxCell id="4Cs5pkkE4mOxZY2ZTMv_-75" style="edgeStyle=orthogonalEdgeStyle;rounded=0;html=1;labelBackgroundColor=none;startArrow=none;startFill=0;startSize=5;endArrow=classicThin;endFill=1;endSize=5;jettySize=auto;orthogonalLoop=1;strokeWidth=1;fontFamily=Verdana;fontSize=8;exitX=0;exitY=1;exitDx=0;exitDy=0;entryX=0;entryY=0.5;entryDx=0;entryDy=0;" parent="2b4e8129b02d487f-1" source="4Cs5pkkE4mOxZY2ZTMv_-4" target="4Cs5pkkE4mOxZY2ZTMv_-67" edge="1">
          <mxGeometry relative="1" as="geometry">
            <mxPoint x="800" y="295" as="sourcePoint" />
            <mxPoint x="780" y="415" as="targetPoint" />
          </mxGeometry>
        </mxCell>
        <mxCell id="4Cs5pkkE4mOxZY2ZTMv_-77" style="edgeStyle=orthogonalEdgeStyle;rounded=0;html=1;labelBackgroundColor=none;startArrow=none;startFill=0;startSize=5;endArrow=classicThin;endFill=1;endSize=5;jettySize=auto;orthogonalLoop=1;strokeWidth=1;fontFamily=Verdana;fontSize=8;exitX=0;exitY=1;exitDx=0;exitDy=0;entryX=0;entryY=0.5;entryDx=0;entryDy=0;" parent="2b4e8129b02d487f-1" source="4Cs5pkkE4mOxZY2ZTMv_-4" target="4Cs5pkkE4mOxZY2ZTMv_-69" edge="1">
          <mxGeometry relative="1" as="geometry">
            <mxPoint x="830" y="355" as="sourcePoint" />
            <mxPoint x="810" y="475" as="targetPoint" />
          </mxGeometry>
        </mxCell>
        <mxCell id="4Cs5pkkE4mOxZY2ZTMv_-76" style="edgeStyle=orthogonalEdgeStyle;rounded=0;html=1;labelBackgroundColor=none;startArrow=none;startFill=0;startSize=5;endArrow=classicThin;endFill=1;endSize=5;jettySize=auto;orthogonalLoop=1;strokeWidth=1;fontFamily=Verdana;fontSize=8;exitX=0;exitY=1;exitDx=0;exitDy=0;entryX=0;entryY=0.5;entryDx=0;entryDy=0;" parent="2b4e8129b02d487f-1" source="4Cs5pkkE4mOxZY2ZTMv_-4" target="4Cs5pkkE4mOxZY2ZTMv_-70" edge="1">
          <mxGeometry relative="1" as="geometry">
            <mxPoint x="770" y="390" as="sourcePoint" />
            <mxPoint x="840" y="490" as="targetPoint" />
          </mxGeometry>
        </mxCell>
        <mxCell id="4Cs5pkkE4mOxZY2ZTMv_-78" style="edgeStyle=orthogonalEdgeStyle;rounded=0;html=1;labelBackgroundColor=none;startArrow=none;startFill=0;startSize=5;endArrow=classicThin;endFill=1;endSize=5;jettySize=auto;orthogonalLoop=1;strokeWidth=1;fontFamily=Verdana;fontSize=8;exitX=0;exitY=1;exitDx=0;exitDy=0;entryX=0;entryY=0.5;entryDx=0;entryDy=0;" parent="2b4e8129b02d487f-1" source="4Cs5pkkE4mOxZY2ZTMv_-70" target="4Cs5pkkE4mOxZY2ZTMv_-71" edge="1">
          <mxGeometry relative="1" as="geometry">
            <mxPoint x="790" y="630" as="sourcePoint" />
            <mxPoint x="770" y="750" as="targetPoint" />
            <Array as="points">
              <mxPoint x="580" y="730" />
            </Array>
          </mxGeometry>
        </mxCell>
        <mxCell id="4Cs5pkkE4mOxZY2ZTMv_-81" style="edgeStyle=orthogonalEdgeStyle;rounded=0;html=1;labelBackgroundColor=none;startArrow=none;startFill=0;startSize=5;endArrow=classicThin;endFill=1;endSize=5;jettySize=auto;orthogonalLoop=1;strokeWidth=1;fontFamily=Verdana;fontSize=8;exitX=0;exitY=1;exitDx=0;exitDy=0;entryX=0;entryY=0.5;entryDx=0;entryDy=0;" parent="2b4e8129b02d487f-1" source="4Cs5pkkE4mOxZY2ZTMv_-70" target="4Cs5pkkE4mOxZY2ZTMv_-72" edge="1">
          <mxGeometry relative="1" as="geometry">
            <mxPoint x="810" y="720" as="sourcePoint" />
            <mxPoint x="790" y="840" as="targetPoint" />
            <Array as="points">
              <mxPoint x="580" y="790" />
            </Array>
          </mxGeometry>
        </mxCell>
        <mxCell id="4Cs5pkkE4mOxZY2ZTMv_-80" style="edgeStyle=orthogonalEdgeStyle;rounded=0;html=1;labelBackgroundColor=none;startArrow=none;startFill=0;startSize=5;endArrow=classicThin;endFill=1;endSize=5;jettySize=auto;orthogonalLoop=1;strokeWidth=1;fontFamily=Verdana;fontSize=8;exitX=0;exitY=1;exitDx=0;exitDy=0;entryX=0;entryY=0.5;entryDx=0;entryDy=0;" parent="2b4e8129b02d487f-1" source="4Cs5pkkE4mOxZY2ZTMv_-70" target="4Cs5pkkE4mOxZY2ZTMv_-73" edge="1">
          <mxGeometry relative="1" as="geometry">
            <mxPoint x="830" y="680" as="sourcePoint" />
            <mxPoint x="810" y="800" as="targetPoint" />
            <Array as="points">
              <mxPoint x="580" y="850" />
            </Array>
          </mxGeometry>
        </mxCell>
        <mxCell id="4Cs5pkkE4mOxZY2ZTMv_-79" style="edgeStyle=orthogonalEdgeStyle;rounded=0;html=1;labelBackgroundColor=none;startArrow=none;startFill=0;startSize=5;endArrow=classicThin;endFill=1;endSize=5;jettySize=auto;orthogonalLoop=1;strokeWidth=1;fontFamily=Verdana;fontSize=8;exitX=0;exitY=1;exitDx=0;exitDy=0;entryX=0;entryY=0.5;entryDx=0;entryDy=0;" parent="2b4e8129b02d487f-1" source="4Cs5pkkE4mOxZY2ZTMv_-70" target="4Cs5pkkE4mOxZY2ZTMv_-74" edge="1">
          <mxGeometry relative="1" as="geometry">
            <mxPoint x="860" y="680" as="sourcePoint" />
            <mxPoint x="840" y="800" as="targetPoint" />
            <Array as="points">
              <mxPoint x="580" y="910" />
            </Array>
          </mxGeometry>
        </mxCell>
      </root>
    </mxGraphModel>
  </diagram>
</mxfile>
